<svg xmlns="http://www.w3.org/2000/svg" xmlns:xlink="http://www.w3.org/1999/xlink" width="190" zoomAndPan="magnify" viewBox="0 0 142.5 30.000001" height="40" preserveAspectRatio="xMidYMid meet" version="1.0"><defs><g/><clipPath id="984e058a11"><path d="M 136 18 L 139.960938 18 L 139.960938 22 L 136 22 Z M 136 18 " clip-rule="nonzero"/></clipPath></defs><g fill="#ffffff" fill-opacity="1"><g transform="translate(5.607633, 21.523614)"><g><path d="M 17.21875 -1.5 C 17.351562 -1.113281 17.59375 -0.796875 17.9375 -0.546875 C 18.28125 -0.296875 18.664062 -0.171875 19.09375 -0.171875 L 19.09375 0 L 10.25 0 L 10.25 -0.171875 C 10.726562 -0.171875 11.117188 -0.367188 11.421875 -0.765625 C 11.734375 -1.171875 11.8125 -1.613281 11.65625 -2.09375 L 10.828125 -4.5 L 5.3125 -4.5 L 5.109375 -3.984375 C 5.015625 -3.660156 4.96875 -3.347656 4.96875 -3.046875 C 4.96875 -2.242188 5.25 -1.5625 5.8125 -1 C 6.375 -0.445312 7.054688 -0.171875 7.859375 -0.171875 L 7.859375 0 L 0.859375 0 L 0.859375 -0.171875 C 1.703125 -0.285156 2.484375 -0.65625 3.203125 -1.28125 C 3.921875 -1.914062 4.429688 -2.632812 4.734375 -3.4375 L 10.765625 -20.09375 C 11.335938 -18.445312 11.832031 -17.007812 12.25 -15.78125 C 12.675781 -14.5625 13.054688 -13.476562 13.390625 -12.53125 C 13.722656 -11.582031 14.023438 -10.703125 14.296875 -9.890625 C 14.578125 -9.078125 14.859375 -8.265625 15.140625 -7.453125 C 15.429688 -6.640625 15.738281 -5.753906 16.0625 -4.796875 C 16.394531 -3.835938 16.78125 -2.738281 17.21875 -1.5 Z M 5.375 -4.671875 L 10.765625 -4.671875 C 10.535156 -5.347656 10.328125 -5.945312 10.140625 -6.46875 C 9.960938 -7 9.773438 -7.53125 9.578125 -8.0625 C 9.390625 -8.601562 9.179688 -9.207031 8.953125 -9.875 C 8.722656 -10.539062 8.445312 -11.34375 8.125 -12.28125 Z M 5.375 -4.671875 "/></g></g></g><g fill="#ffffff" fill-opacity="1"><g transform="translate(23.919105, 21.523614)"><g><path d="M 1.890625 -1.578125 L 1.890625 -11.796875 C 1.890625 -12.160156 1.773438 -12.472656 1.546875 -12.734375 C 1.316406 -12.992188 1.039062 -13.148438 0.71875 -13.203125 L 0.71875 -13.375 L 5.625 -14.09375 C 5.644531 -14.09375 5.660156 -14.09375 5.671875 -14.09375 C 5.679688 -14.09375 5.695312 -14.09375 5.71875 -14.09375 C 6.039062 -14.09375 6.203125 -13.929688 6.203125 -13.609375 L 6.203125 -1.578125 C 6.203125 -1.234375 6.316406 -0.925781 6.546875 -0.65625 C 6.773438 -0.394531 7.050781 -0.234375 7.375 -0.171875 L 7.375 0 L 0.71875 0 L 0.71875 -0.171875 C 1.039062 -0.234375 1.316406 -0.394531 1.546875 -0.65625 C 1.773438 -0.925781 1.890625 -1.234375 1.890625 -1.578125 Z M 6.28125 -17.859375 C 6.28125 -17.265625 6.0625 -16.742188 5.625 -16.296875 C 5.1875 -15.859375 4.660156 -15.640625 4.046875 -15.640625 C 3.429688 -15.640625 2.910156 -15.859375 2.484375 -16.296875 C 2.054688 -16.742188 1.84375 -17.265625 1.84375 -17.859375 C 1.84375 -18.460938 2.054688 -18.984375 2.484375 -19.421875 C 2.910156 -19.867188 3.429688 -20.09375 4.046875 -20.09375 C 4.660156 -20.09375 5.1875 -19.867188 5.625 -19.421875 C 6.0625 -18.984375 6.28125 -18.460938 6.28125 -17.859375 Z M 6.28125 -17.859375 "/></g></g></g><g fill="#ffffff" fill-opacity="1"><g transform="translate(30.376754, 21.523614)"><g><path d="M 10.1875 -19.921875 C 9.632812 -19.921875 9.085938 -19.570312 8.546875 -18.875 C 8.015625 -18.175781 7.578125 -17.238281 7.234375 -16.0625 C 6.890625 -14.882812 6.71875 -13.585938 6.71875 -12.171875 C 6.71875 -10.847656 6.890625 -9.613281 7.234375 -8.46875 C 7.578125 -7.320312 8.054688 -6.3125 8.671875 -5.4375 C 9.296875 -4.570312 10.015625 -3.890625 10.828125 -3.390625 C 11.648438 -2.890625 12.519531 -2.640625 13.4375 -2.640625 C 14.21875 -2.640625 14.976562 -2.832031 15.71875 -3.21875 C 16.46875 -3.613281 17.128906 -4.140625 17.703125 -4.796875 L 17.859375 -4.703125 C 17.046875 -3.285156 15.960938 -2.144531 14.609375 -1.28125 C 13.265625 -0.425781 11.789062 0 10.1875 0 C 8.945312 0 7.78125 -0.253906 6.6875 -0.765625 C 5.59375 -1.285156 4.628906 -2.007812 3.796875 -2.9375 C 2.960938 -3.863281 2.3125 -4.9375 1.84375 -6.15625 C 1.375 -7.375 1.140625 -8.671875 1.140625 -10.046875 C 1.140625 -11.421875 1.375 -12.71875 1.84375 -13.9375 C 2.3125 -15.15625 2.960938 -16.226562 3.796875 -17.15625 C 4.628906 -18.082031 5.59375 -18.800781 6.6875 -19.3125 C 7.78125 -19.832031 8.945312 -20.09375 10.1875 -20.09375 C 11.195312 -20.09375 12.160156 -19.921875 13.078125 -19.578125 C 14.003906 -19.234375 14.828125 -18.78125 15.546875 -18.21875 C 16.265625 -17.664062 16.828125 -17.0625 17.234375 -16.40625 C 17.648438 -15.757812 17.859375 -15.125 17.859375 -14.5 C 17.859375 -13.65625 17.554688 -12.929688 16.953125 -12.328125 C 16.347656 -11.722656 15.625 -11.421875 14.78125 -11.421875 C 13.9375 -11.421875 13.210938 -11.722656 12.609375 -12.328125 C 12.003906 -12.929688 11.703125 -13.65625 11.703125 -14.5 C 11.703125 -15.007812 11.789062 -15.425781 11.96875 -15.75 C 12.144531 -16.082031 12.34375 -16.375 12.5625 -16.625 C 12.78125 -16.875 12.972656 -17.125 13.140625 -17.375 C 13.316406 -17.632812 13.40625 -17.9375 13.40625 -18.28125 C 13.40625 -18.738281 13.203125 -19.085938 12.796875 -19.328125 C 12.398438 -19.566406 11.945312 -19.722656 11.4375 -19.796875 C 10.925781 -19.878906 10.507812 -19.921875 10.1875 -19.921875 Z M 10.1875 -19.921875 "/></g></g></g><g fill="#ffffff" fill-opacity="1"><g transform="translate(47.741069, 21.523614)"><g><path d="M 7.546875 -14.375 C 8.753906 -14.375 9.847656 -14.046875 10.828125 -13.390625 C 11.816406 -12.742188 12.609375 -11.867188 13.203125 -10.765625 C 13.796875 -9.671875 14.09375 -8.457031 14.09375 -7.125 C 14.09375 -5.78125 13.796875 -4.554688 13.203125 -3.453125 C 12.609375 -2.359375 11.816406 -1.484375 10.828125 -0.828125 C 9.847656 -0.179688 8.753906 0.140625 7.546875 0.140625 C 6.335938 0.140625 5.238281 -0.179688 4.25 -0.828125 C 3.269531 -1.484375 2.484375 -2.359375 1.890625 -3.453125 C 1.296875 -4.554688 1 -5.78125 1 -7.125 C 1 -8.457031 1.296875 -9.671875 1.890625 -10.765625 C 2.484375 -11.867188 3.269531 -12.742188 4.25 -13.390625 C 5.238281 -14.046875 6.335938 -14.375 7.546875 -14.375 Z M 7.546875 -0.03125 C 9.023438 -0.03125 9.765625 -2.394531 9.765625 -7.125 C 9.765625 -11.84375 9.023438 -14.203125 7.546875 -14.203125 C 6.054688 -14.203125 5.3125 -11.84375 5.3125 -7.125 C 5.3125 -2.394531 6.054688 -0.03125 7.546875 -0.03125 Z M 7.546875 -0.03125 "/></g></g></g><g fill="#ffffff" fill-opacity="1"><g transform="translate(61.201945, 21.523614)"><g><path d="M 13.75 -1.578125 C 13.75 -1.234375 13.863281 -0.925781 14.09375 -0.65625 C 14.320312 -0.394531 14.597656 -0.234375 14.921875 -0.171875 L 14.921875 0 L 8.265625 0 L 8.265625 -0.171875 C 8.585938 -0.234375 8.863281 -0.394531 9.09375 -0.65625 C 9.320312 -0.925781 9.4375 -1.234375 9.4375 -1.578125 L 9.4375 -10.046875 C 9.4375 -10.546875 9.5625 -10.9375 9.8125 -11.21875 C 10.0625 -11.507812 10.3125 -11.78125 10.5625 -12.03125 C 10.8125 -12.289062 10.9375 -12.59375 10.9375 -12.9375 C 10.9375 -13.269531 10.753906 -13.519531 10.390625 -13.6875 C 10.023438 -13.863281 9.554688 -13.953125 8.984375 -13.953125 C 8.347656 -13.953125 7.78125 -13.867188 7.28125 -13.703125 C 6.789062 -13.546875 6.429688 -13.410156 6.203125 -13.296875 L 6.203125 -1.578125 C 6.203125 -1.234375 6.316406 -0.925781 6.546875 -0.65625 C 6.773438 -0.394531 7.050781 -0.234375 7.375 -0.171875 L 7.375 0 L 0.71875 0 L 0.71875 -0.171875 C 1.039062 -0.234375 1.316406 -0.394531 1.546875 -0.65625 C 1.773438 -0.925781 1.890625 -1.234375 1.890625 -1.578125 L 1.890625 -11.796875 C 1.890625 -12.160156 1.773438 -12.472656 1.546875 -12.734375 C 1.316406 -12.992188 1.039062 -13.148438 0.71875 -13.203125 L 0.71875 -13.375 L 5.625 -14.09375 C 5.644531 -14.09375 5.660156 -14.09375 5.671875 -14.09375 C 5.679688 -14.09375 5.695312 -14.09375 5.71875 -14.09375 C 6.039062 -14.09375 6.203125 -13.929688 6.203125 -13.609375 L 6.203125 -13.484375 C 6.734375 -13.753906 7.328125 -13.96875 7.984375 -14.125 C 8.648438 -14.289062 9.316406 -14.375 9.984375 -14.375 C 10.660156 -14.375 11.285156 -14.242188 11.859375 -13.984375 C 12.429688 -13.734375 12.890625 -13.320312 13.234375 -12.75 C 13.578125 -12.1875 13.75 -11.421875 13.75 -10.453125 Z M 13.75 -1.578125 "/></g></g></g><g fill="#ffffff" fill-opacity="1"><g transform="translate(75.208158, 21.523614)"><g><path d="M 7.546875 -14.375 C 8.753906 -14.375 9.847656 -14.046875 10.828125 -13.390625 C 11.816406 -12.742188 12.609375 -11.867188 13.203125 -10.765625 C 13.796875 -9.671875 14.09375 -8.457031 14.09375 -7.125 C 14.09375 -5.78125 13.796875 -4.554688 13.203125 -3.453125 C 12.609375 -2.359375 11.816406 -1.484375 10.828125 -0.828125 C 9.847656 -0.179688 8.753906 0.140625 7.546875 0.140625 C 6.335938 0.140625 5.238281 -0.179688 4.25 -0.828125 C 3.269531 -1.484375 2.484375 -2.359375 1.890625 -3.453125 C 1.296875 -4.554688 1 -5.78125 1 -7.125 C 1 -8.457031 1.296875 -9.671875 1.890625 -10.765625 C 2.484375 -11.867188 3.269531 -12.742188 4.25 -13.390625 C 5.238281 -14.046875 6.335938 -14.375 7.546875 -14.375 Z M 7.546875 -0.03125 C 9.023438 -0.03125 9.765625 -2.394531 9.765625 -7.125 C 9.765625 -11.84375 9.023438 -14.203125 7.546875 -14.203125 C 6.054688 -14.203125 5.3125 -11.84375 5.3125 -7.125 C 5.3125 -2.394531 6.054688 -0.03125 7.546875 -0.03125 Z M 7.546875 -0.03125 "/></g></g></g><g fill="#ffffff" fill-opacity="1"><g transform="translate(88.669034, 21.523614)"><g><path d="M 21.296875 -1.578125 C 21.296875 -1.234375 21.410156 -0.925781 21.640625 -0.65625 C 21.867188 -0.394531 22.144531 -0.234375 22.46875 -0.171875 L 22.46875 0 L 15.8125 0 L 15.8125 -0.171875 C 16.132812 -0.234375 16.410156 -0.394531 16.640625 -0.65625 C 16.878906 -0.925781 17 -1.234375 17 -1.578125 L 17 -10.046875 C 17 -10.546875 17.117188 -10.9375 17.359375 -11.21875 C 17.609375 -11.507812 17.859375 -11.78125 18.109375 -12.03125 C 18.359375 -12.289062 18.484375 -12.59375 18.484375 -12.9375 C 18.484375 -13.269531 18.296875 -13.519531 17.921875 -13.6875 C 17.546875 -13.863281 17.082031 -13.953125 16.53125 -13.953125 C 15.707031 -13.953125 14.972656 -13.8125 14.328125 -13.53125 C 13.691406 -13.257812 13.289062 -13.054688 13.125 -12.921875 C 13.539062 -12.328125 13.75 -11.503906 13.75 -10.453125 L 13.75 -1.578125 C 13.75 -1.234375 13.863281 -0.925781 14.09375 -0.65625 C 14.320312 -0.394531 14.597656 -0.234375 14.921875 -0.171875 L 14.921875 0 L 8.265625 0 L 8.265625 -0.171875 C 8.585938 -0.234375 8.863281 -0.394531 9.09375 -0.65625 C 9.320312 -0.925781 9.4375 -1.234375 9.4375 -1.578125 L 9.4375 -10.046875 C 9.4375 -10.546875 9.5625 -10.9375 9.8125 -11.21875 C 10.0625 -11.507812 10.3125 -11.78125 10.5625 -12.03125 C 10.8125 -12.289062 10.9375 -12.59375 10.9375 -12.9375 C 10.9375 -13.269531 10.753906 -13.519531 10.390625 -13.6875 C 10.023438 -13.863281 9.554688 -13.953125 8.984375 -13.953125 C 8.097656 -13.953125 7.171875 -13.734375 6.203125 -13.296875 L 6.203125 -1.578125 C 6.203125 -1.234375 6.316406 -0.925781 6.546875 -0.65625 C 6.773438 -0.394531 7.050781 -0.234375 7.375 -0.171875 L 7.375 0 L 0.71875 0 L 0.71875 -0.171875 C 1.039062 -0.234375 1.316406 -0.394531 1.546875 -0.65625 C 1.773438 -0.925781 1.890625 -1.234375 1.890625 -1.578125 L 1.890625 -11.796875 C 1.890625 -12.160156 1.773438 -12.472656 1.546875 -12.734375 C 1.316406 -12.992188 1.039062 -13.148438 0.71875 -13.203125 L 0.71875 -13.375 L 5.625 -14.09375 C 5.644531 -14.09375 5.660156 -14.09375 5.671875 -14.09375 C 5.679688 -14.09375 5.695312 -14.09375 5.71875 -14.09375 C 6.039062 -14.09375 6.203125 -13.929688 6.203125 -13.609375 L 6.203125 -13.484375 C 6.703125 -13.734375 7.265625 -13.941406 7.890625 -14.109375 C 8.523438 -14.273438 9.164062 -14.363281 9.8125 -14.375 C 10.46875 -14.394531 11.078125 -14.304688 11.640625 -14.109375 C 12.203125 -13.910156 12.664062 -13.5625 13.03125 -13.0625 C 13.71875 -13.519531 14.460938 -13.851562 15.265625 -14.0625 C 16.066406 -14.269531 16.785156 -14.375 17.421875 -14.375 C 18.109375 -14.375 18.742188 -14.25 19.328125 -14 C 19.910156 -13.757812 20.382812 -13.351562 20.75 -12.78125 C 21.113281 -12.21875 21.296875 -11.441406 21.296875 -10.453125 Z M 21.296875 -1.578125 "/></g></g></g><g fill="#ffffff" fill-opacity="1"><g transform="translate(110.223805, 21.523614)"><g><path d="M 1.890625 -1.578125 L 1.890625 -11.796875 C 1.890625 -12.160156 1.773438 -12.472656 1.546875 -12.734375 C 1.316406 -12.992188 1.039062 -13.148438 0.71875 -13.203125 L 0.71875 -13.375 L 5.625 -14.09375 C 5.644531 -14.09375 5.660156 -14.09375 5.671875 -14.09375 C 5.679688 -14.09375 5.695312 -14.09375 5.71875 -14.09375 C 6.039062 -14.09375 6.203125 -13.929688 6.203125 -13.609375 L 6.203125 -1.578125 C 6.203125 -1.234375 6.316406 -0.925781 6.546875 -0.65625 C 6.773438 -0.394531 7.050781 -0.234375 7.375 -0.171875 L 7.375 0 L 0.71875 0 L 0.71875 -0.171875 C 1.039062 -0.234375 1.316406 -0.394531 1.546875 -0.65625 C 1.773438 -0.925781 1.890625 -1.234375 1.890625 -1.578125 Z M 6.28125 -17.859375 C 6.28125 -17.265625 6.0625 -16.742188 5.625 -16.296875 C 5.1875 -15.859375 4.660156 -15.640625 4.046875 -15.640625 C 3.429688 -15.640625 2.910156 -15.859375 2.484375 -16.296875 C 2.054688 -16.742188 1.84375 -17.265625 1.84375 -17.859375 C 1.84375 -18.460938 2.054688 -18.984375 2.484375 -19.421875 C 2.910156 -19.867188 3.429688 -20.09375 4.046875 -20.09375 C 4.660156 -20.09375 5.1875 -19.867188 5.625 -19.421875 C 6.0625 -18.984375 6.28125 -18.460938 6.28125 -17.859375 Z M 6.28125 -17.859375 "/></g></g></g><g fill="#ffffff" fill-opacity="1"><g transform="translate(116.681452, 21.523614)"><g><path d="M 11.828125 -3.875 C 11.878906 -3.125 11.65625 -2.441406 11.15625 -1.828125 C 10.664062 -1.222656 10 -0.742188 9.15625 -0.390625 C 8.3125 -0.0351562 7.394531 0.140625 6.40625 0.140625 C 5.425781 0.140625 4.53125 -0.0195312 3.71875 -0.34375 C 2.90625 -0.664062 2.25 -1.109375 1.75 -1.671875 C 1.25 -2.242188 1 -2.882812 1 -3.59375 C 1 -4.195312 1.21875 -4.710938 1.65625 -5.140625 C 2.101562 -5.578125 2.625 -5.796875 3.21875 -5.796875 C 3.832031 -5.796875 4.359375 -5.578125 4.796875 -5.140625 C 5.234375 -4.710938 5.453125 -4.195312 5.453125 -3.59375 C 5.453125 -3.070312 5.34375 -2.671875 5.125 -2.390625 C 4.90625 -2.117188 4.679688 -1.890625 4.453125 -1.703125 C 4.222656 -1.523438 4.109375 -1.3125 4.109375 -1.0625 C 4.109375 -0.851562 4.210938 -0.648438 4.421875 -0.453125 C 4.628906 -0.265625 4.878906 -0.148438 5.171875 -0.109375 C 5.359375 -0.0976562 5.535156 -0.0820312 5.703125 -0.0625 C 5.878906 -0.0390625 6.113281 -0.03125 6.40625 -0.03125 C 6.914062 -0.03125 7.351562 -0.210938 7.71875 -0.578125 C 8.082031 -0.941406 8.265625 -1.378906 8.265625 -1.890625 C 8.265625 -2.367188 8.085938 -2.832031 7.734375 -3.28125 C 7.378906 -3.738281 6.925781 -4.191406 6.375 -4.640625 C 5.832031 -5.085938 5.25 -5.550781 4.625 -6.03125 C 4.007812 -6.507812 3.425781 -7 2.875 -7.5 C 2.332031 -8.007812 1.882812 -8.554688 1.53125 -9.140625 C 1.175781 -9.722656 1 -10.347656 1 -11.015625 C 1 -11.785156 1.253906 -12.414062 1.765625 -12.90625 C 2.285156 -13.40625 2.921875 -13.773438 3.671875 -14.015625 C 4.421875 -14.253906 5.148438 -14.375 5.859375 -14.375 C 6.546875 -14.375 7.125 -14.304688 7.59375 -14.171875 C 8.0625 -14.046875 8.484375 -13.925781 8.859375 -13.8125 C 9.234375 -13.695312 9.617188 -13.644531 10.015625 -13.65625 C 10.171875 -13.675781 10.3125 -13.710938 10.4375 -13.765625 C 10.5625 -13.828125 10.660156 -13.898438 10.734375 -13.984375 L 10.875 -13.984375 L 10.875 -9.328125 C 10.875 -9.328125 10.859375 -9.328125 10.828125 -9.328125 C 10.804688 -9.328125 10.773438 -9.328125 10.734375 -9.328125 C 10.617188 -9.898438 10.425781 -10.539062 10.15625 -11.25 C 9.894531 -11.957031 9.5 -12.585938 8.96875 -13.140625 C 8.445312 -13.703125 7.71875 -14.039062 6.78125 -14.15625 C 6.28125 -14.226562 5.847656 -14.128906 5.484375 -13.859375 C 5.117188 -13.597656 4.914062 -13.160156 4.875 -12.546875 C 4.84375 -11.929688 5.039062 -11.363281 5.46875 -10.84375 C 5.894531 -10.332031 6.441406 -9.820312 7.109375 -9.3125 C 7.785156 -8.800781 8.472656 -8.28125 9.171875 -7.75 C 9.867188 -7.21875 10.460938 -6.632812 10.953125 -6 C 11.453125 -5.363281 11.742188 -4.65625 11.828125 -3.875 Z M 11.828125 -3.875 "/></g></g></g><g fill="#ffffff" fill-opacity="1"><g transform="translate(127.903586, 21.523614)"><g><path d="M 7.75 -1.03125 C 8.070312 -1.03125 8.359375 -1.117188 8.609375 -1.296875 L 8.609375 -1.09375 C 8.265625 -0.84375 7.796875 -0.570312 7.203125 -0.28125 C 6.609375 0 5.910156 0.140625 5.109375 0.140625 C 4.222656 0.140625 3.460938 -0.171875 2.828125 -0.796875 C 2.203125 -1.429688 1.890625 -2.191406 1.890625 -3.078125 L 1.890625 -13.921875 L 0.71875 -13.921875 L 0.71875 -14.09375 C 1.789062 -14.09375 2.789062 -14.328125 3.71875 -14.796875 C 4.644531 -15.265625 5.414062 -15.890625 6.03125 -16.671875 L 6.203125 -16.671875 L 6.203125 -14.09375 L 8.0625 -14.09375 L 8.0625 -13.921875 L 6.203125 -13.921875 L 6.203125 -2.578125 C 6.203125 -2.160156 6.351562 -1.796875 6.65625 -1.484375 C 6.96875 -1.179688 7.332031 -1.03125 7.75 -1.03125 Z M 7.75 -1.03125 "/></g></g></g><g clip-path="url(#984e058a11)"><g fill="#ffffff" fill-opacity="1"><g transform="translate(135.3084, 21.523614)"><g><path d="M 2.78125 0.140625 C 2.28125 0.140625 1.859375 -0.03125 1.515625 -0.375 C 1.171875 -0.71875 1 -1.140625 1 -1.640625 C 1 -2.128906 1.171875 -2.550781 1.515625 -2.90625 C 1.859375 -3.257812 2.28125 -3.4375 2.78125 -3.4375 C 3.28125 -3.4375 3.707031 -3.257812 4.0625 -2.90625 C 4.414062 -2.550781 4.59375 -2.128906 4.59375 -1.640625 C 4.59375 -1.140625 4.414062 -0.71875 4.0625 -0.375 C 3.707031 -0.03125 3.28125 0.140625 2.78125 0.140625 Z M 2.78125 0.140625 "/></g></g></g></g><g fill="#ffffff" fill-opacity="1"><g transform="translate(4.876375, 27.085723)"><g><path d="M 5.046875 -3.09375 L 4.03125 0 L 3.265625 0 L 2.578125 -2.09375 L 1.875 0 L 1.109375 0 L 0.09375 -3.09375 L 0.84375 -3.09375 L 1.53125 -0.921875 L 2.265625 -3.09375 L 2.9375 -3.09375 L 3.640625 -0.90625 L 4.359375 -3.09375 Z M 5.046875 -3.09375 "/></g></g></g><g fill="#ffffff" fill-opacity="1"><g transform="translate(10.158718, 27.085723)"><g><path d="M 3.203125 -3.09375 L 3.203125 0 L 2.484375 0 L 2.484375 -1.265625 L 1.078125 -1.265625 L 1.078125 0 L 0.359375 0 L 0.359375 -3.09375 L 1.078125 -3.09375 L 1.078125 -1.875 L 2.484375 -1.875 L 2.484375 -3.09375 Z M 3.203125 -3.09375 "/></g></g></g><g fill="#ffffff" fill-opacity="1"><g transform="translate(13.870574, 27.085723)"><g><path d="M 2.765625 -0.578125 L 2.765625 0 L 0.359375 0 L 0.359375 -3.09375 L 2.703125 -3.09375 L 2.703125 -2.515625 L 1.078125 -2.515625 L 1.078125 -1.84375 L 2.515625 -1.84375 L 2.515625 -1.296875 L 1.078125 -1.296875 L 1.078125 -0.578125 Z M 2.765625 -0.578125 "/></g></g></g><g fill="#ffffff" fill-opacity="1"><g transform="translate(16.976353, 27.085723)"><g><path d="M 2.34375 0 L 1.75 -0.859375 L 1.078125 -0.859375 L 1.078125 0 L 0.359375 0 L 0.359375 -3.09375 L 1.703125 -3.09375 C 1.984375 -3.09375 2.222656 -3.046875 2.421875 -2.953125 C 2.617188 -2.867188 2.769531 -2.738281 2.875 -2.5625 C 2.988281 -2.394531 3.046875 -2.195312 3.046875 -1.96875 C 3.046875 -1.738281 2.988281 -1.539062 2.875 -1.375 C 2.769531 -1.207031 2.617188 -1.082031 2.421875 -1 L 3.109375 0 Z M 2.328125 -1.96875 C 2.328125 -2.144531 2.269531 -2.28125 2.15625 -2.375 C 2.039062 -2.46875 1.878906 -2.515625 1.671875 -2.515625 L 1.078125 -2.515625 L 1.078125 -1.4375 L 1.671875 -1.4375 C 1.878906 -1.4375 2.039062 -1.484375 2.15625 -1.578125 C 2.269531 -1.671875 2.328125 -1.800781 2.328125 -1.96875 Z M 2.328125 -1.96875 "/></g></g></g><g fill="#ffffff" fill-opacity="1"><g transform="translate(20.365261, 27.085723)"><g><path d="M 2.765625 -0.578125 L 2.765625 0 L 0.359375 0 L 0.359375 -3.09375 L 2.703125 -3.09375 L 2.703125 -2.515625 L 1.078125 -2.515625 L 1.078125 -1.84375 L 2.515625 -1.84375 L 2.515625 -1.296875 L 1.078125 -1.296875 L 1.078125 -0.578125 Z M 2.765625 -0.578125 "/></g></g></g><g fill="#ffffff" fill-opacity="1"><g transform="translate(23.47104, 27.085723)"><g/></g></g><g fill="#ffffff" fill-opacity="1"><g transform="translate(24.860346, 27.085723)"><g><path d="M 2.40625 -0.65625 L 0.96875 -0.65625 L 0.6875 0 L -0.046875 0 L 1.34375 -3.09375 L 2.046875 -3.09375 L 3.4375 0 L 2.6875 0 Z M 2.1875 -1.203125 L 1.6875 -2.390625 L 1.203125 -1.203125 Z M 2.1875 -1.203125 "/></g></g></g><g fill="#ffffff" fill-opacity="1"><g transform="translate(28.386399, 27.085723)"><g><path d="M 0.359375 -3.09375 L 1.078125 -3.09375 L 1.078125 0 L 0.359375 0 Z M 0.359375 -3.09375 "/></g></g></g><g fill="#ffffff" fill-opacity="1"><g transform="translate(29.974782, 27.085723)"><g/></g></g><g fill="#ffffff" fill-opacity="1"><g transform="translate(31.364088, 27.085723)"><g><path d="M 1.84375 0.046875 C 1.53125 0.046875 1.242188 -0.0195312 0.984375 -0.15625 C 0.734375 -0.289062 0.535156 -0.476562 0.390625 -0.71875 C 0.242188 -0.96875 0.171875 -1.242188 0.171875 -1.546875 C 0.171875 -1.847656 0.242188 -2.117188 0.390625 -2.359375 C 0.535156 -2.609375 0.734375 -2.800781 0.984375 -2.9375 C 1.242188 -3.070312 1.535156 -3.140625 1.859375 -3.140625 C 2.117188 -3.140625 2.359375 -3.09375 2.578125 -3 C 2.796875 -2.90625 2.976562 -2.769531 3.125 -2.59375 L 2.671875 -2.171875 C 2.460938 -2.410156 2.203125 -2.53125 1.890625 -2.53125 C 1.691406 -2.53125 1.519531 -2.488281 1.375 -2.40625 C 1.226562 -2.320312 1.109375 -2.203125 1.015625 -2.046875 C 0.929688 -1.898438 0.890625 -1.734375 0.890625 -1.546875 C 0.890625 -1.359375 0.929688 -1.1875 1.015625 -1.03125 C 1.109375 -0.882812 1.226562 -0.769531 1.375 -0.6875 C 1.519531 -0.601562 1.691406 -0.5625 1.890625 -0.5625 C 2.203125 -0.5625 2.460938 -0.679688 2.671875 -0.921875 L 3.125 -0.5 C 2.976562 -0.320312 2.796875 -0.1875 2.578125 -0.09375 C 2.359375 0 2.113281 0.046875 1.84375 0.046875 Z M 1.84375 0.046875 "/></g></g></g><g fill="#ffffff" fill-opacity="1"><g transform="translate(34.744149, 27.085723)"><g><path d="M 1.859375 0.046875 C 1.546875 0.046875 1.257812 -0.0195312 1 -0.15625 C 0.738281 -0.289062 0.535156 -0.476562 0.390625 -0.71875 C 0.242188 -0.96875 0.171875 -1.242188 0.171875 -1.546875 C 0.171875 -1.847656 0.242188 -2.117188 0.390625 -2.359375 C 0.535156 -2.609375 0.738281 -2.800781 1 -2.9375 C 1.257812 -3.070312 1.546875 -3.140625 1.859375 -3.140625 C 2.179688 -3.140625 2.472656 -3.070312 2.734375 -2.9375 C 2.992188 -2.800781 3.195312 -2.609375 3.34375 -2.359375 C 3.488281 -2.117188 3.5625 -1.847656 3.5625 -1.546875 C 3.5625 -1.242188 3.488281 -0.96875 3.34375 -0.71875 C 3.195312 -0.476562 2.992188 -0.289062 2.734375 -0.15625 C 2.472656 -0.0195312 2.179688 0.046875 1.859375 0.046875 Z M 1.859375 -0.5625 C 2.046875 -0.5625 2.210938 -0.601562 2.359375 -0.6875 C 2.503906 -0.769531 2.617188 -0.882812 2.703125 -1.03125 C 2.785156 -1.1875 2.828125 -1.359375 2.828125 -1.546875 C 2.828125 -1.734375 2.785156 -1.898438 2.703125 -2.046875 C 2.617188 -2.203125 2.503906 -2.320312 2.359375 -2.40625 C 2.210938 -2.488281 2.046875 -2.53125 1.859375 -2.53125 C 1.679688 -2.53125 1.519531 -2.488281 1.375 -2.40625 C 1.226562 -2.320312 1.109375 -2.203125 1.015625 -2.046875 C 0.929688 -1.898438 0.890625 -1.734375 0.890625 -1.546875 C 0.890625 -1.359375 0.929688 -1.1875 1.015625 -1.03125 C 1.109375 -0.882812 1.226562 -0.769531 1.375 -0.6875 C 1.519531 -0.601562 1.679688 -0.5625 1.859375 -0.5625 Z M 1.859375 -0.5625 "/></g></g></g><g fill="#ffffff" fill-opacity="1"><g transform="translate(38.615266, 27.085723)"><g><path d="M 3.1875 0 L 3.171875 -1.859375 L 2.265625 -0.328125 L 1.953125 -0.328125 L 1.046875 -1.8125 L 1.046875 0 L 0.359375 0 L 0.359375 -3.09375 L 0.953125 -3.09375 L 2.125 -1.171875 L 3.265625 -3.09375 L 3.84375 -3.09375 L 3.859375 0 Z M 3.1875 0 "/></g></g></g><g fill="#ffffff" fill-opacity="1"><g transform="translate(42.977438, 27.085723)"><g><path d="M 2.765625 -0.578125 L 2.765625 0 L 0.359375 0 L 0.359375 -3.09375 L 2.703125 -3.09375 L 2.703125 -2.515625 L 1.078125 -2.515625 L 1.078125 -1.84375 L 2.515625 -1.84375 L 2.515625 -1.296875 L 1.078125 -1.296875 L 1.078125 -0.578125 Z M 2.765625 -0.578125 "/></g></g></g><g fill="#ffffff" fill-opacity="1"><g transform="translate(46.083217, 27.085723)"><g/></g></g><g fill="#ffffff" fill-opacity="1"><g transform="translate(47.472522, 27.085723)"><g><path d="M 1.015625 -2.515625 L 0.015625 -2.515625 L 0.015625 -3.09375 L 2.71875 -3.09375 L 2.71875 -2.515625 L 1.71875 -2.515625 L 1.71875 0 L 1.015625 0 Z M 1.015625 -2.515625 "/></g></g></g><g fill="#ffffff" fill-opacity="1"><g transform="translate(50.343835, 27.085723)"><g><path d="M 1.859375 0.046875 C 1.546875 0.046875 1.257812 -0.0195312 1 -0.15625 C 0.738281 -0.289062 0.535156 -0.476562 0.390625 -0.71875 C 0.242188 -0.96875 0.171875 -1.242188 0.171875 -1.546875 C 0.171875 -1.847656 0.242188 -2.117188 0.390625 -2.359375 C 0.535156 -2.609375 0.738281 -2.800781 1 -2.9375 C 1.257812 -3.070312 1.546875 -3.140625 1.859375 -3.140625 C 2.179688 -3.140625 2.472656 -3.070312 2.734375 -2.9375 C 2.992188 -2.800781 3.195312 -2.609375 3.34375 -2.359375 C 3.488281 -2.117188 3.5625 -1.847656 3.5625 -1.546875 C 3.5625 -1.242188 3.488281 -0.96875 3.34375 -0.71875 C 3.195312 -0.476562 2.992188 -0.289062 2.734375 -0.15625 C 2.472656 -0.0195312 2.179688 0.046875 1.859375 0.046875 Z M 1.859375 -0.5625 C 2.046875 -0.5625 2.210938 -0.601562 2.359375 -0.6875 C 2.503906 -0.769531 2.617188 -0.882812 2.703125 -1.03125 C 2.785156 -1.1875 2.828125 -1.359375 2.828125 -1.546875 C 2.828125 -1.734375 2.785156 -1.898438 2.703125 -2.046875 C 2.617188 -2.203125 2.503906 -2.320312 2.359375 -2.40625 C 2.210938 -2.488281 2.046875 -2.53125 1.859375 -2.53125 C 1.679688 -2.53125 1.519531 -2.488281 1.375 -2.40625 C 1.226562 -2.320312 1.109375 -2.203125 1.015625 -2.046875 C 0.929688 -1.898438 0.890625 -1.734375 0.890625 -1.546875 C 0.890625 -1.359375 0.929688 -1.1875 1.015625 -1.03125 C 1.109375 -0.882812 1.226562 -0.769531 1.375 -0.6875 C 1.519531 -0.601562 1.679688 -0.5625 1.859375 -0.5625 Z M 1.859375 -0.5625 "/></g></g></g><g fill="#ffffff" fill-opacity="1"><g transform="translate(54.214952, 27.085723)"><g/></g></g><g fill="#ffffff" fill-opacity="1"><g transform="translate(55.604257, 27.085723)"><g><path d="M 0.359375 -3.09375 L 1.078125 -3.09375 L 1.078125 -0.578125 L 2.640625 -0.578125 L 2.640625 0 L 0.359375 0 Z M 0.359375 -3.09375 "/></g></g></g><g fill="#ffffff" fill-opacity="1"><g transform="translate(58.413636, 27.085723)"><g><path d="M 0.359375 -3.09375 L 1.078125 -3.09375 L 1.078125 0 L 0.359375 0 Z M 0.359375 -3.09375 "/></g></g></g><g fill="#ffffff" fill-opacity="1"><g transform="translate(60.002019, 27.085723)"><g><path d="M 1.078125 -2.515625 L 1.078125 -1.703125 L 2.515625 -1.703125 L 2.515625 -1.125 L 1.078125 -1.125 L 1.078125 0 L 0.359375 0 L 0.359375 -3.09375 L 2.703125 -3.09375 L 2.703125 -2.515625 Z M 1.078125 -2.515625 "/></g></g></g><g fill="#ffffff" fill-opacity="1"><g transform="translate(62.966236, 27.085723)"><g><path d="M 2.765625 -0.578125 L 2.765625 0 L 0.359375 0 L 0.359375 -3.09375 L 2.703125 -3.09375 L 2.703125 -2.515625 L 1.078125 -2.515625 L 1.078125 -1.84375 L 2.515625 -1.84375 L 2.515625 -1.296875 L 1.078125 -1.296875 L 1.078125 -0.578125 Z M 2.765625 -0.578125 "/></g></g></g><g fill="#ffffff" fill-opacity="1"><g transform="translate(91.709418, 25.487931)"><g><path d="M 1.640625 -1 C 1.753906 -0.96875 1.84375 -0.910156 1.90625 -0.828125 C 1.96875 -0.742188 2 -0.644531 2 -0.53125 C 2 -0.351562 1.929688 -0.21875 1.796875 -0.125 C 1.660156 -0.0390625 1.46875 0 1.21875 0 L 0.234375 0 L 0.234375 -1.921875 L 1.171875 -1.921875 C 1.398438 -1.921875 1.578125 -1.875 1.703125 -1.78125 C 1.828125 -1.695312 1.890625 -1.578125 1.890625 -1.421875 C 1.890625 -1.328125 1.867188 -1.242188 1.828125 -1.171875 C 1.785156 -1.097656 1.722656 -1.039062 1.640625 -1 Z M 0.671875 -1.59375 L 0.671875 -1.140625 L 1.109375 -1.140625 C 1.222656 -1.140625 1.304688 -1.15625 1.359375 -1.1875 C 1.421875 -1.226562 1.453125 -1.285156 1.453125 -1.359375 C 1.453125 -1.441406 1.421875 -1.5 1.359375 -1.53125 C 1.304688 -1.570312 1.222656 -1.59375 1.109375 -1.59375 Z M 1.1875 -0.328125 C 1.300781 -0.328125 1.390625 -0.347656 1.453125 -0.390625 C 1.515625 -0.429688 1.546875 -0.492188 1.546875 -0.578125 C 1.546875 -0.734375 1.425781 -0.8125 1.1875 -0.8125 L 0.671875 -0.8125 L 0.671875 -0.328125 Z M 1.1875 -0.328125 "/></g></g></g><g fill="#ffffff" fill-opacity="1"><g transform="translate(94.855541, 25.487931)"><g><path d="M 1.15625 -0.6875 L 1.15625 0 L 0.703125 0 L 0.703125 -0.6875 L -0.03125 -1.921875 L 0.4375 -1.921875 L 0.953125 -1.0625 L 1.46875 -1.921875 L 1.90625 -1.921875 Z M 1.15625 -0.6875 "/></g></g></g><g fill="#ffffff" fill-opacity="1"><g transform="translate(97.757545, 25.487931)"><g/></g></g><g fill="#ffffff" fill-opacity="1"><g transform="translate(99.58158, 25.487931)"><g><path d="M 1.5 -0.40625 L 0.609375 -0.40625 L 0.4375 0 L -0.03125 0 L 0.828125 -1.921875 L 1.265625 -1.921875 L 2.140625 0 L 1.671875 0 Z M 1.359375 -0.75 L 1.046875 -1.484375 L 0.75 -0.75 Z M 1.359375 -0.75 "/></g></g></g><g fill="#ffffff" fill-opacity="1"><g transform="translate(102.730445, 25.487931)"><g><path d="M 1.5 -0.40625 L 0.609375 -0.40625 L 0.4375 0 L -0.03125 0 L 0.828125 -1.921875 L 1.265625 -1.921875 L 2.140625 0 L 1.671875 0 Z M 1.359375 -0.75 L 1.046875 -1.484375 L 0.75 -0.75 Z M 1.359375 -0.75 "/></g></g></g><g fill="#ffffff" fill-opacity="1"><g transform="translate(105.87931, 25.487931)"><g><path d="M 0.234375 -1.921875 L 1.109375 -1.921875 C 1.316406 -1.921875 1.5 -1.878906 1.65625 -1.796875 C 1.8125 -1.722656 1.9375 -1.613281 2.03125 -1.46875 C 2.125 -1.320312 2.171875 -1.15625 2.171875 -0.96875 C 2.171875 -0.769531 2.125 -0.597656 2.03125 -0.453125 C 1.9375 -0.304688 1.8125 -0.191406 1.65625 -0.109375 C 1.5 -0.0351562 1.316406 0 1.109375 0 L 0.234375 0 Z M 1.078125 -0.359375 C 1.273438 -0.359375 1.429688 -0.410156 1.546875 -0.515625 C 1.660156 -0.628906 1.71875 -0.78125 1.71875 -0.96875 C 1.71875 -1.144531 1.660156 -1.285156 1.546875 -1.390625 C 1.429688 -1.503906 1.273438 -1.5625 1.078125 -1.5625 L 0.671875 -1.5625 L 0.671875 -0.359375 Z M 1.078125 -0.359375 "/></g></g></g><g fill="#ffffff" fill-opacity="1"><g transform="translate(109.192749, 25.487931)"><g><path d="M 1.5 -0.40625 L 0.609375 -0.40625 L 0.4375 0 L -0.03125 0 L 0.828125 -1.921875 L 1.265625 -1.921875 L 2.140625 0 L 1.671875 0 Z M 1.359375 -0.75 L 1.046875 -1.484375 L 0.75 -0.75 Z M 1.359375 -0.75 "/></g></g></g><g fill="#ffffff" fill-opacity="1"><g transform="translate(112.341614, 25.487931)"><g><path d="M 1.453125 0 L 1.078125 -0.53125 L 0.671875 -0.53125 L 0.671875 0 L 0.234375 0 L 0.234375 -1.921875 L 1.0625 -1.921875 C 1.226562 -1.921875 1.375 -1.890625 1.5 -1.828125 C 1.625 -1.773438 1.71875 -1.695312 1.78125 -1.59375 C 1.851562 -1.488281 1.890625 -1.363281 1.890625 -1.21875 C 1.890625 -1.082031 1.851562 -0.960938 1.78125 -0.859375 C 1.71875 -0.753906 1.625 -0.675781 1.5 -0.625 L 1.9375 0 Z M 1.453125 -1.21875 C 1.453125 -1.332031 1.414062 -1.414062 1.34375 -1.46875 C 1.269531 -1.53125 1.164062 -1.5625 1.03125 -1.5625 L 0.671875 -1.5625 L 0.671875 -0.890625 L 1.03125 -0.890625 C 1.164062 -0.890625 1.269531 -0.914062 1.34375 -0.96875 C 1.414062 -1.03125 1.453125 -1.113281 1.453125 -1.21875 Z M 1.453125 -1.21875 "/></g></g></g><g fill="#ffffff" fill-opacity="1"><g transform="translate(115.40545, 25.487931)"><g><path d="M 0.859375 0.03125 C 0.703125 0.03125 0.550781 0.0078125 0.40625 -0.03125 C 0.269531 -0.0703125 0.160156 -0.125 0.078125 -0.1875 L 0.234375 -0.53125 C 0.316406 -0.46875 0.410156 -0.414062 0.515625 -0.375 C 0.628906 -0.34375 0.742188 -0.328125 0.859375 -0.328125 C 0.984375 -0.328125 1.078125 -0.34375 1.140625 -0.375 C 1.203125 -0.414062 1.234375 -0.46875 1.234375 -0.53125 C 1.234375 -0.570312 1.210938 -0.609375 1.171875 -0.640625 C 1.140625 -0.671875 1.09375 -0.695312 1.03125 -0.71875 C 0.976562 -0.738281 0.90625 -0.757812 0.8125 -0.78125 C 0.664062 -0.8125 0.546875 -0.84375 0.453125 -0.875 C 0.359375 -0.914062 0.273438 -0.972656 0.203125 -1.046875 C 0.140625 -1.128906 0.109375 -1.234375 0.109375 -1.359375 C 0.109375 -1.472656 0.140625 -1.570312 0.203125 -1.65625 C 0.265625 -1.75 0.351562 -1.820312 0.46875 -1.875 C 0.59375 -1.925781 0.742188 -1.953125 0.921875 -1.953125 C 1.046875 -1.953125 1.164062 -1.9375 1.28125 -1.90625 C 1.40625 -1.882812 1.507812 -1.84375 1.59375 -1.78125 L 1.453125 -1.453125 C 1.273438 -1.546875 1.097656 -1.59375 0.921875 -1.59375 C 0.796875 -1.59375 0.703125 -1.570312 0.640625 -1.53125 C 0.585938 -1.5 0.5625 -1.445312 0.5625 -1.375 C 0.5625 -1.3125 0.59375 -1.265625 0.65625 -1.234375 C 0.726562 -1.203125 0.832031 -1.171875 0.96875 -1.140625 C 1.125 -1.109375 1.25 -1.070312 1.34375 -1.03125 C 1.4375 -1 1.515625 -0.941406 1.578125 -0.859375 C 1.640625 -0.785156 1.671875 -0.6875 1.671875 -0.5625 C 1.671875 -0.457031 1.640625 -0.359375 1.578125 -0.265625 C 1.523438 -0.171875 1.4375 -0.0976562 1.3125 -0.046875 C 1.1875 0.00390625 1.035156 0.03125 0.859375 0.03125 Z M 0.859375 0.03125 "/></g></g></g><g fill="#ffffff" fill-opacity="1"><g transform="translate(118.203221, 25.487931)"><g><path d="M 2 -1.921875 L 2 0 L 1.546875 0 L 1.546875 -0.796875 L 0.671875 -0.796875 L 0.671875 0 L 0.234375 0 L 0.234375 -1.921875 L 0.671875 -1.921875 L 0.671875 -1.171875 L 1.546875 -1.171875 L 1.546875 -1.921875 Z M 2 -1.921875 "/></g></g></g><g fill="#ffffff" fill-opacity="1"><g transform="translate(121.467291, 25.487931)"><g/></g></g><g fill="#ffffff" fill-opacity="1"><g transform="translate(123.291326, 25.487931)"><g><path d="M 1.53125 -1 L 1.9375 -1 L 1.9375 -0.21875 C 1.832031 -0.132812 1.707031 -0.0703125 1.5625 -0.03125 C 1.425781 0.0078125 1.289062 0.03125 1.15625 0.03125 C 0.957031 0.03125 0.773438 -0.0078125 0.609375 -0.09375 C 0.453125 -0.175781 0.328125 -0.289062 0.234375 -0.4375 C 0.148438 -0.59375 0.109375 -0.769531 0.109375 -0.96875 C 0.109375 -1.15625 0.148438 -1.320312 0.234375 -1.46875 C 0.328125 -1.625 0.453125 -1.742188 0.609375 -1.828125 C 0.773438 -1.910156 0.960938 -1.953125 1.171875 -1.953125 C 1.335938 -1.953125 1.488281 -1.921875 1.625 -1.859375 C 1.757812 -1.804688 1.875 -1.726562 1.96875 -1.625 L 1.6875 -1.359375 C 1.550781 -1.503906 1.382812 -1.578125 1.1875 -1.578125 C 1.0625 -1.578125 0.953125 -1.550781 0.859375 -1.5 C 0.765625 -1.445312 0.691406 -1.375 0.640625 -1.28125 C 0.585938 -1.1875 0.5625 -1.082031 0.5625 -0.96875 C 0.5625 -0.84375 0.585938 -0.734375 0.640625 -0.640625 C 0.691406 -0.546875 0.765625 -0.472656 0.859375 -0.421875 C 0.953125 -0.367188 1.0625 -0.34375 1.1875 -0.34375 C 1.3125 -0.34375 1.425781 -0.367188 1.53125 -0.421875 Z M 1.53125 -1 "/></g></g></g><g fill="#ffffff" fill-opacity="1"><g transform="translate(126.453905, 25.487931)"><g><path d="M 1.078125 0.03125 C 0.804688 0.03125 0.59375 -0.0390625 0.4375 -0.1875 C 0.289062 -0.34375 0.21875 -0.5625 0.21875 -0.84375 L 0.21875 -1.921875 L 0.65625 -1.921875 L 0.65625 -0.859375 C 0.65625 -0.515625 0.800781 -0.34375 1.09375 -0.34375 C 1.226562 -0.34375 1.332031 -0.382812 1.40625 -0.46875 C 1.476562 -0.550781 1.515625 -0.679688 1.515625 -0.859375 L 1.515625 -1.921875 L 1.953125 -1.921875 L 1.953125 -0.84375 C 1.953125 -0.5625 1.875 -0.34375 1.71875 -0.1875 C 1.570312 -0.0390625 1.359375 0.03125 1.078125 0.03125 Z M 1.078125 0.03125 "/></g></g></g><g fill="#ffffff" fill-opacity="1"><g transform="translate(129.663116, 25.487931)"><g><path d="M 1.0625 -1.921875 C 1.226562 -1.921875 1.375 -1.890625 1.5 -1.828125 C 1.625 -1.773438 1.71875 -1.695312 1.78125 -1.59375 C 1.851562 -1.488281 1.890625 -1.363281 1.890625 -1.21875 C 1.890625 -1.082031 1.851562 -0.960938 1.78125 -0.859375 C 1.71875 -0.753906 1.625 -0.671875 1.5 -0.609375 C 1.375 -0.554688 1.226562 -0.53125 1.0625 -0.53125 L 0.671875 -0.53125 L 0.671875 0 L 0.234375 0 L 0.234375 -1.921875 Z M 1.03125 -0.890625 C 1.164062 -0.890625 1.269531 -0.914062 1.34375 -0.96875 C 1.414062 -1.03125 1.453125 -1.113281 1.453125 -1.21875 C 1.453125 -1.332031 1.414062 -1.414062 1.34375 -1.46875 C 1.269531 -1.53125 1.164062 -1.5625 1.03125 -1.5625 L 0.671875 -1.5625 L 0.671875 -0.890625 Z M 1.03125 -0.890625 "/></g></g></g><g fill="#ffffff" fill-opacity="1"><g transform="translate(132.718721, 25.487931)"><g><path d="M 0.625 -1.5625 L 0.015625 -1.5625 L 0.015625 -1.921875 L 1.6875 -1.921875 L 1.6875 -1.5625 L 1.078125 -1.5625 L 1.078125 0 L 0.625 0 Z M 0.625 -1.5625 "/></g></g></g><g fill="#ffffff" fill-opacity="1"><g transform="translate(135.461633, 25.487931)"><g><path d="M 1.5 -0.40625 L 0.609375 -0.40625 L 0.4375 0 L -0.03125 0 L 0.828125 -1.921875 L 1.265625 -1.921875 L 2.140625 0 L 1.671875 0 Z M 1.359375 -0.75 L 1.046875 -1.484375 L 0.75 -0.75 Z M 1.359375 -0.75 "/></g></g></g></svg>